<?xml version="1.0" encoding="UTF-8"?>
<svg enable-background="new 0 0 60 60" version="1.1" viewBox="0 0 60 60" xml:space="preserve" xmlns="http://www.w3.org/2000/svg">
	<path d="m36 59c-7.732 0-14-12.984-14-29s6.268-29 14-29 14 12.984 14 29-6.268 29-14 29" fill="#FAC9A6"/>
	<path d="m26 30c0-15.261 5.923-25 10-25s10 9.739 10 25-5.923 25-10 25-10-9.739-10-25" fill="#DF9061"/>
	<path d="m35.287 38.541c0.211 0.997 0.826 1.582 1.528 1.366l0.749-0.229c0.55-0.17 1.01-0.828 1.238-1.634 2.343-1.095 3.191-3.891 3.191-8.043 0-0.197-4e-3 -0.39-0.012-0.579-0.059-1.417 0.079-2.83 0.482-3.934 0.164-0.449 0.336-0.815 0.515-1.057 0.08-0.109 0.029-0.374-0.074-0.374-0.177 0-0.388 0.013-0.621 0.052-0.908 0.151-0.771-0.029-1.677-0.926-0.526-0.521-1.134-0.935-1.806-1.235-0.229-0.802-0.688-1.456-1.236-1.624l-0.749-0.23c-0.702-0.216-1.317 0.368-1.528 1.365-1.793 0.285-3.37 1.503-4.237 4.162l-1.261-0.146c-0.336-0.038-0.648-0.329-0.801-0.753l-1.935-5.361c-0.656 3.13-1.053 6.699-1.053 10.639 0 3.884 0.385 7.408 1.024 10.508l1.961-5.245c0.155-0.415 0.464-0.699 0.795-0.737l1.27-0.146c0.867 2.658 2.444 3.876 4.237 4.161" fill="#FCD6BD"/>
	<path d="m9 46.905c-0.552 0-1 0.448-1 1v3.497c-2.987-1.283-6-3.355-6-6.497 0-2.158 1.932-4.291 5.439-6.007 0.497-0.243 0.702-0.842 0.459-1.338-0.242-0.495-0.84-0.701-1.337-0.459-5.423 2.653-6.561 5.709-6.561 7.804 0 2.419 1.278 5.718 7.011 8.242l-2.611 1.958c-0.442 0.331-0.531 0.958-0.2 1.4 0.196 0.262 0.497 0.4 0.801 0.4 0.208 0 0.419-0.065 0.599-0.2l4-3c0.019-0.015 0.028-0.036 0.046-0.052 0.053-0.045 0.094-0.097 0.136-0.152 0.038-0.051 0.076-0.098 0.104-0.154 0.021-0.042 0.036-0.084 0.051-0.129 1e-3 -3e-3 3e-3 -4e-3 3e-3 -7e-3 5e-3 -0.013 2e-3 -0.025 6e-3 -0.038 0.019-0.067 0.036-0.131 0.04-0.2 2e-3 -0.024 0.014-0.043 0.014-0.068v-5c0-0.551-0.448-1-1-1" fill="#D1D4D2"/>
	<path d="m52.989 5.853l2.611-1.958c0.442-0.332 0.532-0.959 0.2-1.4-0.331-0.441-0.956-0.533-1.4-0.2l-4 3c-0.019 0.014-0.028 0.036-0.046 0.052-0.053 0.045-0.094 0.097-0.136 0.152-0.038 0.051-0.076 0.098-0.103 0.153-0.022 0.043-0.037 0.086-0.052 0.131-1e-3 2e-3 -2e-3 3e-3 -3e-3 6e-3 -5e-3 0.012-2e-3 0.025-6e-3 0.038-0.019 0.067-0.035 0.131-0.04 0.2-2e-3 0.024-0.014 0.044-0.014 0.068v5c0 0.552 0.448 1 1 1s1-0.448 1-1v-3.497c2.987 1.283 6 3.355 6 6.497 0 2.157-1.931 4.291-5.44 6.007-0.496 0.242-0.702 0.841-0.459 1.337 0.174 0.354 0.529 0.56 0.899 0.56 0.148 0 0.297-0.033 0.439-0.102 5.423-2.651 6.561-5.707 6.561-7.802 0-2.419-1.277-5.718-7.011-8.242" fill="#D1D4D2"/>
	<path d="m22 30c0-16.016 6.268-29 14-29h-9c-7.732 0-14 12.984-14 29s6.268 29 14 29h9c-7.732 0-14-12.984-14-29" fill="#F4B389"/>
	<path d="m29.798 4h-9c-0.576 0.591-1.13 1.257-1.658 2h9c0.528-0.743 1.082-1.409 1.658-2" fill="#DF9061"/>
	<path d="m28.141 54h-9c0.528 0.743 1.082 1.409 1.658 2h9c-0.577-0.591-1.131-1.257-1.658-2" fill="#DF9061"/>
	<path d="m26.884 8h-9c-0.355 0.632-0.694 1.299-1.017 2h9c0.323-0.701 0.662-1.368 1.017-2" fill="#DF9061"/>
	<path d="m25.868 50h-9c0.323 0.701 0.662 1.368 1.017 2h9c-0.355-0.632-0.695-1.299-1.017-2" fill="#DF9061"/>
	<path d="m25.027 12h-9c-0.247 0.646-0.482 1.312-0.703 2h9c0.221-0.689 0.456-1.354 0.703-2" fill="#DF9061"/>
	<path d="m24.325 46h-9c0.22 0.689 0.456 1.354 0.703 2h9c-0.247-0.646-0.483-1.312-0.703-2" fill="#DF9061"/>
	<path d="m23.739 16h-9c-0.174 0.651-0.334 1.32-0.483 2h9c0.149-0.68 0.309-1.349 0.483-2" fill="#DF9061"/>
	<path d="m23.256 42h-9c0.15 0.681 0.309 1.349 0.483 2h9c-0.174-0.651-0.333-1.319-0.483-2" fill="#DF9061"/>
	<path d="m22.691 21h-9c-0.104 0.657-0.197 1.323-0.278 2h9c0.081-0.677 0.174-1.343 0.278-2" fill="#DF9061"/>
	<path d="m22.413 37h-9c0.081 0.677 0.174 1.343 0.278 2h9c-0.104-0.657-0.197-1.323-0.278-2" fill="#DF9061"/>
	<path d="m22.136 26h-9c-0.044 0.66-0.077 1.327-0.099 2h9c0.022-0.673 0.055-1.34 0.099-2" fill="#DF9061"/>
	<path d="m22.037 32h-9c0.022 0.673 0.055 1.34 0.099 2h9c-0.044-0.66-0.077-1.327-0.099-2" fill="#DF9061"/>
</svg>
