<?xml version="1.0" encoding="iso-8859-1"?>
<!-- Generator: Adobe Illustrator 19.0.0, SVG Export Plug-In . SVG Version: 6.00 Build 0)  -->
<svg version="1.1" id="Capa_1" xmlns="http://www.w3.org/2000/svg" xmlns:xlink="http://www.w3.org/1999/xlink" x="0px" y="0px"
	 viewBox="0 0 60 60" style="enable-background:new 0 0 60 60;" xml:space="preserve">
<g id="XMLID_20_">
	<path id="XMLID_122_" style="fill:#FAC9A6;" d="M36,59c-7.732,0-14-12.984-14-29c0-16.016,6.268-29,14-29c7.732,0,14,12.984,14,29
		C50,46.016,43.732,59,36,59"/>
	<path id="XMLID_121_" style="fill:#DF9061;" d="M26,30c0-15.261,5.923-25,10-25c4.077,0,10,9.739,10,25c0,15.261-5.923,25-10,25
		C31.923,55,26,45.261,26,30"/>
	<path id="XMLID_120_" style="fill:#FCD6BD;" d="M35.287,38.541c0.211,0.997,0.826,1.582,1.528,1.366l0.749-0.229
		c0.55-0.17,1.01-0.828,1.238-1.634c2.343-1.095,3.191-3.891,3.191-8.043c0-0.197-0.004-0.39-0.012-0.579
		c-0.059-1.417,0.079-2.83,0.482-3.934c0.164-0.449,0.336-0.815,0.515-1.057c0.08-0.109,0.029-0.374-0.074-0.374
		c-0.177,0-0.388,0.013-0.621,0.052c-0.908,0.151-0.771-0.029-1.677-0.926c-0.526-0.521-1.134-0.935-1.806-1.235
		c-0.229-0.802-0.688-1.456-1.236-1.624l-0.749-0.23c-0.702-0.216-1.317,0.368-1.528,1.365c-1.793,0.285-3.37,1.503-4.237,4.162
		l-1.261-0.146c-0.336-0.038-0.648-0.329-0.801-0.753l-1.935-5.361C26.397,22.491,26,26.06,26,30c0,3.884,0.385,7.408,1.024,10.508
		l1.961-5.245c0.155-0.415,0.464-0.699,0.795-0.737l1.27-0.146C31.917,37.038,33.494,38.256,35.287,38.541"/>
	<path id="XMLID_119_" style="fill:#D1D4D2;" d="M9,46.905c-0.552,0-1,0.448-1,1v3.497c-2.987-1.283-6-3.355-6-6.497
		c0-2.158,1.932-4.291,5.439-6.007c0.497-0.243,0.702-0.842,0.459-1.338c-0.242-0.495-0.84-0.701-1.337-0.459
		C1.138,39.754,0,42.81,0,44.905c0,2.419,1.278,5.718,7.011,8.242L4.4,55.105c-0.442,0.331-0.531,0.958-0.2,1.4
		c0.196,0.262,0.497,0.4,0.801,0.4c0.208,0,0.419-0.065,0.599-0.2l4-3c0.019-0.015,0.028-0.036,0.046-0.052
		c0.053-0.045,0.094-0.097,0.136-0.152c0.038-0.051,0.076-0.098,0.104-0.154c0.021-0.042,0.036-0.084,0.051-0.129
		c0.001-0.003,0.003-0.004,0.003-0.007c0.005-0.013,0.002-0.025,0.006-0.038c0.019-0.067,0.036-0.131,0.04-0.2
		C9.988,52.949,10,52.93,10,52.905v-5C10,47.354,9.552,46.905,9,46.905"/>
	<path id="XMLID_118_" style="fill:#D1D4D2;" d="M52.989,5.853L55.6,3.895c0.442-0.332,0.532-0.959,0.2-1.4
		c-0.331-0.441-0.956-0.533-1.4-0.2l-4,3c-0.019,0.014-0.028,0.036-0.046,0.052c-0.053,0.045-0.094,0.097-0.136,0.152
		c-0.038,0.051-0.076,0.098-0.103,0.153c-0.022,0.043-0.037,0.086-0.052,0.131c-0.001,0.002-0.002,0.003-0.003,0.006
		c-0.005,0.012-0.002,0.025-0.006,0.038c-0.019,0.067-0.035,0.131-0.04,0.2C50.012,6.051,50,6.071,50,6.095v5c0,0.552,0.448,1,1,1
		c0.552,0,1-0.448,1-1V7.598c2.987,1.283,6,3.355,6,6.497c0,2.157-1.931,4.291-5.44,6.007c-0.496,0.242-0.702,0.841-0.459,1.337
		c0.174,0.354,0.529,0.56,0.899,0.56c0.148,0,0.297-0.033,0.439-0.102C58.862,19.246,60,16.19,60,14.095
		C60,11.676,58.723,8.377,52.989,5.853"/>
	<path id="XMLID_117_" style="fill:#F4B389;" d="M22,30c0-16.016,6.268-29,14-29h-9c-7.732,0-14,12.984-14,29
		c0,16.016,6.268,29,14,29h9C28.268,59,22,46.016,22,30"/>
	<path id="XMLID_116_" style="fill:#DF9061;" d="M29.798,4h-9c-0.576,0.591-1.13,1.257-1.658,2h9
		C28.668,5.257,29.222,4.591,29.798,4"/>
	<path id="XMLID_115_" style="fill:#DF9061;" d="M28.141,54h-9c0.528,0.743,1.082,1.409,1.658,2h9
		C29.222,55.409,28.668,54.743,28.141,54"/>
	<path id="XMLID_114_" style="fill:#DF9061;" d="M26.884,8h-9c-0.355,0.632-0.694,1.299-1.017,2h9
		C26.19,9.299,26.529,8.632,26.884,8"/>
	<path id="XMLID_113_" style="fill:#DF9061;" d="M25.868,50h-9c0.323,0.701,0.662,1.368,1.017,2h9
		C26.53,51.368,26.19,50.701,25.868,50"/>
	<path id="XMLID_112_" style="fill:#DF9061;" d="M25.027,12h-9c-0.247,0.646-0.482,1.312-0.703,2h9
		C24.545,13.311,24.78,12.646,25.027,12"/>
	<path id="XMLID_111_" style="fill:#DF9061;" d="M24.325,46h-9c0.22,0.689,0.456,1.354,0.703,2h9
		C24.781,47.354,24.545,46.688,24.325,46"/>
	<path id="XMLID_110_" style="fill:#DF9061;" d="M23.739,16h-9c-0.174,0.651-0.334,1.32-0.483,2h9
		C23.405,17.32,23.565,16.651,23.739,16"/>
	<path id="XMLID_109_" style="fill:#DF9061;" d="M23.256,42h-9c0.15,0.681,0.309,1.349,0.483,2h9
		C23.565,43.349,23.406,42.681,23.256,42"/>
	<path id="XMLID_108_" style="fill:#DF9061;" d="M22.691,21h-9c-0.104,0.657-0.197,1.323-0.278,2h9
		C22.494,22.323,22.587,21.657,22.691,21"/>
	<path id="XMLID_107_" style="fill:#DF9061;" d="M22.413,37h-9c0.081,0.677,0.174,1.343,0.278,2h9
		C22.587,38.343,22.494,37.677,22.413,37"/>
	<path id="XMLID_106_" style="fill:#DF9061;" d="M22.136,26h-9c-0.044,0.66-0.077,1.327-0.099,2h9
		C22.059,27.327,22.092,26.66,22.136,26"/>
	<path id="XMLID_105_" style="fill:#DF9061;" d="M22.037,32h-9c0.022,0.673,0.055,1.34,0.099,2h9
		C22.092,33.34,22.059,32.673,22.037,32"/>
</g>
<g>
</g>
<g>
</g>
<g>
</g>
<g>
</g>
<g>
</g>
<g>
</g>
<g>
</g>
<g>
</g>
<g>
</g>
<g>
</g>
<g>
</g>
<g>
</g>
<g>
</g>
<g>
</g>
<g>
</g>
</svg>
